<svg xmlns="http://www.w3.org/2000/svg" width="159" height="26"><path fill-rule="evenodd" fill="#34AB52" d="M154.91 9.795c-.922 0-1.383.257-1.383.772 0 .284.147.508.438.67.292.163.777.353 1.453.569.677.217 1.158.383 1.443.498.285.116.627.295 1.025.539.743.46 1.114 1.23 1.114 2.307s-.388 1.941-1.164 2.591c-.776.651-1.761.976-2.955.976-.796 0-1.626-.145-2.488-.437a7.3 7.3 0 0 1-2.328-1.29l1.313-1.911c1.114.881 2.302 1.321 3.563 1.321.384 0 .689-.078.915-.233a.722.722 0 0 0 .338-.62c0-.257-.156-.495-.468-.712-.311-.216-.763-.42-1.353-.61s-1.041-.352-1.354-.488a7.544 7.544 0 0 1-1.064-.589c-.809-.515-1.214-1.277-1.214-2.287 0-1.009.398-1.832 1.194-2.469.796-.637 1.825-.955 3.085-.955s2.521.434 3.781 1.3l-1.114 2.033c-.929-.65-1.854-.975-2.777-.975zm-9.781-6.321h2.985v15.08h-2.985V3.474zm-9.036 12.154c.518.38 1.101.569 1.752.569 1.048 0 1.91-.359 2.587-1.077l1.672 1.85c-1.208 1.164-2.624 1.747-4.249 1.747-1.625 0-2.969-.511-4.031-1.534-1.061-1.023-1.592-2.395-1.592-4.117 0-1.72.541-3.089 1.623-4.105 1.081-1.017 2.358-1.524 3.831-1.524 1.472 0 2.723.454 3.751 1.361 1.028.909 1.542 2.155 1.542 3.74v1.626h-7.801c.093.596.398 1.085.915 1.464zm3.861-3.638c-.066-.651-.305-1.152-.716-1.505-.411-.352-.912-.529-1.503-.529-.59 0-1.131.184-1.622.55-.491.366-.775.861-.855 1.484h4.696zm-16.159 3.638c.517.38 1.101.569 1.751.569 1.048 0 1.91-.359 2.587-1.077l1.672 1.85c-1.208 1.164-2.624 1.747-4.249 1.747-1.625 0-2.969-.511-4.03-1.534-1.062-1.023-1.592-2.395-1.592-4.117 0-1.72.54-3.089 1.622-4.105 1.081-1.017 2.358-1.524 3.831-1.524 1.472 0 2.723.454 3.751 1.361 1.028.909 1.542 2.155 1.542 3.74v1.626h-7.801c.093.596.398 1.085.916 1.464zm3.861-3.638c-.067-.651-.306-1.152-.717-1.505-.411-.352-.912-.529-1.503-.529a2.65 2.65 0 0 0-1.621.55c-.492.366-.776.861-.857 1.484h4.698zm-12.818.589c0-1.68-.603-2.52-1.81-2.52-.598 0-1.118.22-1.563.66-.445.441-.667 1.088-.667 1.941v5.894h-2.985V3.473h2.985v5.366c.903-.935 1.914-1.402 3.035-1.402 1.122 0 2.067.406 2.837 1.219.769.813 1.154 1.897 1.154 3.252v6.646h-2.986v-5.975zm-15.442 5.975l-1.971-5.955-1.99 5.955H92.35L88.708 7.62h3.085l2.09 6.605 2.09-6.605h2.885l2.089 6.605 2.09-6.605h3.105L102.5 18.554h-3.104zm-15.047-6.178c0-1.681-.603-2.521-1.81-2.521-.598 0-1.119.221-1.563.661-.444.441-.666 1.088-.666 1.941v6.097h-2.986V7.62h2.986v1.219c.902-.935 1.917-1.402 3.044-1.402 1.128 0 2.073.406 2.837 1.22.762.812 1.144 1.896 1.144 3.251v6.646h-2.986v-6.178zm-16.06 3.252c.517.38 1.101.569 1.751.569 1.048 0 1.911-.359 2.588-1.077l1.671 1.85c-1.207 1.164-2.624 1.747-4.249 1.747-1.625 0-2.969-.511-4.03-1.534-1.062-1.023-1.592-2.395-1.592-4.117 0-1.72.541-3.089 1.622-4.105 1.081-1.017 2.358-1.524 3.831-1.524 1.472 0 2.723.454 3.751 1.361 1.028.909 1.542 2.155 1.542 3.74v1.626h-7.801c.093.596.398 1.085.916 1.464zm3.861-3.638c-.067-.651-.306-1.152-.716-1.505-.412-.352-.913-.529-1.503-.529-.591 0-1.131.184-1.622.55-.492.366-.776.861-.857 1.484h4.698zm-16.16 3.638c.517.38 1.1.569 1.751.569 1.048 0 1.911-.359 2.587-1.077L62 16.97c-1.208 1.164-2.624 1.747-4.249 1.747-1.625 0-2.969-.511-4.03-1.534-1.062-1.023-1.592-2.395-1.592-4.117 0-1.72.54-3.089 1.622-4.105 1.081-1.017 2.358-1.524 3.831-1.524 1.472 0 2.723.454 3.751 1.361 1.028.909 1.542 2.155 1.542 3.74v1.626h-7.801c.093.596.398 1.085.916 1.464zm3.86-3.638c-.066-.651-.305-1.152-.716-1.505-.411-.352-.912-.529-1.502-.529a2.65 2.65 0 0 0-1.622.55c-.492.366-.776.861-.857 1.484h4.697zm-11.662-.722c-.438.644-.656 1.494-.656 2.55v4.736h-2.986V7.62h2.986v1.443a4.992 4.992 0 0 1 1.442-1.138 3.861 3.861 0 0 1 1.761-.488l.02 2.865h-.577c-.889 0-1.552.323-1.99.966zM39.89 21.522c-1.102.895-2.402 1.341-3.901 1.341a8.004 8.004 0 0 1-2.438-.396 6.864 6.864 0 0 1-2.179-1.128l1.153-2.297c.982.759 2.02 1.138 3.116 1.138 1.094 0 1.96-.277 2.597-.833.636-.556.955-1.436.955-2.642-.943 1.07-2.113 1.605-3.513 1.605s-2.581-.484-3.542-1.453c-.963-.968-1.443-2.263-1.443-3.881 0-1.62.494-2.947 1.482-3.985.988-1.036 2.12-1.554 3.394-1.554 1.273 0 2.328.535 3.164 1.605V7.599h2.985v9.532c0 .977-.166 1.843-.497 2.602-.332.759-.777 1.355-1.333 1.789zM38.059 10.79a2.352 2.352 0 0 0-1.772-.752c-.703 0-1.31.251-1.822.752-.51.502-.765 1.186-.765 2.053 0 .868.249 1.569.746 2.104.497.535 1.105.803 1.821.803.717 0 1.314-.265 1.792-.793.477-.528.716-1.23.716-2.103 0-.875-.239-1.562-.716-2.064zM12.727 25.997C5.71 25.997 0 20.165 0 12.998 0 5.83 5.71-.001 12.727-.001c7.018 0 12.728 5.831 12.728 12.999 0 7.167-5.71 12.999-12.728 12.999zm0-18.439c-2.936 0-5.325 2.441-5.325 5.44 0 2.998 2.389 5.438 5.325 5.438 2.937 0 5.326-2.44 5.326-5.438 0-2.999-2.389-5.44-5.326-5.44z"/></svg>